<mxfile host="Electron" agent="Mozilla/5.0 (Windows NT 10.0; Win64; x64) AppleWebKit/537.36 (KHTML, like Gecko) draw.io/26.0.4 Chrome/128.0.6613.186 Electron/32.2.5 Safari/537.36" version="26.0.4">
  <diagram name="페이지-1" id="E83MkHTmSorR2PcJw1Nw">
    <mxGraphModel dx="1434" dy="836" grid="1" gridSize="10" guides="1" tooltips="1" connect="1" arrows="1" fold="1" page="1" pageScale="1" pageWidth="827" pageHeight="1169" math="0" shadow="0">
      <root>
        <mxCell id="0" />
        <mxCell id="1" parent="0" />
        <mxCell id="7ahtKJVibJh3lbpBCX55-8" value="" style="shape=umlLifeline;perimeter=lifelinePerimeter;whiteSpace=wrap;html=1;container=1;dropTarget=0;collapsible=0;recursiveResize=0;outlineConnect=0;portConstraint=eastwest;newEdgeStyle={&quot;curved&quot;:0,&quot;rounded&quot;:0};participant=umlActor;" vertex="1" parent="1">
          <mxGeometry x="80" y="120" width="20" height="670" as="geometry" />
        </mxCell>
        <mxCell id="7ahtKJVibJh3lbpBCX55-9" value="프론트엔드" style="shape=umlLifeline;perimeter=lifelinePerimeter;whiteSpace=wrap;html=1;container=1;dropTarget=0;collapsible=0;recursiveResize=0;outlineConnect=0;portConstraint=eastwest;newEdgeStyle={&quot;curved&quot;:0,&quot;rounded&quot;:0};" vertex="1" parent="1">
          <mxGeometry x="300" y="120" width="100" height="660" as="geometry" />
        </mxCell>
        <mxCell id="7ahtKJVibJh3lbpBCX55-13" value="" style="html=1;points=[[0,0,0,0,5],[0,1,0,0,-5],[1,0,0,0,5],[1,1,0,0,-5]];perimeter=orthogonalPerimeter;outlineConnect=0;targetShapes=umlLifeline;portConstraint=eastwest;newEdgeStyle={&quot;curved&quot;:0,&quot;rounded&quot;:0};" vertex="1" parent="7ahtKJVibJh3lbpBCX55-9">
          <mxGeometry x="45" y="100" width="10" height="210" as="geometry" />
        </mxCell>
        <mxCell id="7ahtKJVibJh3lbpBCX55-12" value="백엔드" style="shape=umlLifeline;perimeter=lifelinePerimeter;whiteSpace=wrap;html=1;container=1;dropTarget=0;collapsible=0;recursiveResize=0;outlineConnect=0;portConstraint=eastwest;newEdgeStyle={&quot;curved&quot;:0,&quot;rounded&quot;:0};" vertex="1" parent="1">
          <mxGeometry x="560" y="120" width="100" height="660" as="geometry" />
        </mxCell>
        <mxCell id="7ahtKJVibJh3lbpBCX55-17" value="" style="html=1;points=[[0,0,0,0,5],[0,1,0,0,-5],[1,0,0,0,5],[1,1,0,0,-5]];perimeter=orthogonalPerimeter;outlineConnect=0;targetShapes=umlLifeline;portConstraint=eastwest;newEdgeStyle={&quot;curved&quot;:0,&quot;rounded&quot;:0};" vertex="1" parent="7ahtKJVibJh3lbpBCX55-12">
          <mxGeometry x="45" y="120" width="10" height="80" as="geometry" />
        </mxCell>
        <mxCell id="7ahtKJVibJh3lbpBCX55-14" value="dispatch" style="html=1;verticalAlign=bottom;endArrow=block;curved=0;rounded=0;entryX=0;entryY=0;entryDx=0;entryDy=5;" edge="1" target="7ahtKJVibJh3lbpBCX55-13" parent="1" source="7ahtKJVibJh3lbpBCX55-8">
          <mxGeometry relative="1" as="geometry">
            <mxPoint x="90" y="185" as="sourcePoint" />
          </mxGeometry>
        </mxCell>
        <mxCell id="7ahtKJVibJh3lbpBCX55-15" value="return" style="html=1;verticalAlign=bottom;endArrow=open;dashed=1;endSize=8;curved=0;rounded=0;exitX=0;exitY=1;exitDx=0;exitDy=-5;" edge="1" source="7ahtKJVibJh3lbpBCX55-13" parent="1" target="7ahtKJVibJh3lbpBCX55-8">
          <mxGeometry relative="1" as="geometry">
            <mxPoint x="90" y="255" as="targetPoint" />
          </mxGeometry>
        </mxCell>
        <mxCell id="7ahtKJVibJh3lbpBCX55-16" value="frame" style="shape=umlFrame;whiteSpace=wrap;html=1;pointerEvents=0;" vertex="1" parent="1">
          <mxGeometry x="50" y="180" width="600" height="150" as="geometry" />
        </mxCell>
        <mxCell id="7ahtKJVibJh3lbpBCX55-18" value="dispatch" style="html=1;verticalAlign=bottom;endArrow=block;curved=0;rounded=0;entryX=0;entryY=0;entryDx=0;entryDy=5;" edge="1" target="7ahtKJVibJh3lbpBCX55-17" parent="1">
          <mxGeometry relative="1" as="geometry">
            <mxPoint x="350" y="245" as="sourcePoint" />
          </mxGeometry>
        </mxCell>
        <mxCell id="7ahtKJVibJh3lbpBCX55-19" value="return" style="html=1;verticalAlign=bottom;endArrow=open;dashed=1;endSize=8;curved=0;rounded=0;exitX=0;exitY=1;exitDx=0;exitDy=-5;" edge="1" source="7ahtKJVibJh3lbpBCX55-17" parent="1">
          <mxGeometry relative="1" as="geometry">
            <mxPoint x="350" y="315" as="targetPoint" />
          </mxGeometry>
        </mxCell>
      </root>
    </mxGraphModel>
  </diagram>
</mxfile>
